<svg xmlns="http://www.w3.org/2000/svg" width="64" height="64" viewBox="0 0 32 32">
    <path d="m6.367 14.9-3.2 1.1 3.2 1.1c1.866.667 2.333 2.067 1.2 3.7l-1.934 2.767 3.3-1.034c1.9-.566 3.067.3 3.067 2.267v3.367l2.067-2.7c1.2-1.567 2.666-1.567 3.866 0l2.067 2.7V24.8c0-1.967 1.167-2.833 3.067-2.267l3.3 1.034-1.934-2.767c-1.133-1.633-.666-3.033 1.2-3.7l3.2-1.1-3.2-1.1c-1.866-.667-2.333-2.067-1.2-3.7l1.934-2.767-3.3 1.034c-1.9.566-3.067-.3-3.067-2.267V3.833l-2.067 2.7c-1.2 1.567-2.666 1.567-3.866 0L12 3.833V7.2c0 1.967-1.167 2.833-3.067 2.267l-3.3-1.034L7.567 11.2c1.133 1.633.666 3.033-1.2 3.7zM10 16c0-3.28 2.719-6 6-6 3.319 0 6 2.723 6 6a6 6 0 0 1-6 6c-3.277 0-6-2.681-6-6zm2 0c0 2.215 1.81 4 4 4 2.219 0 4-1.78 4-4 0-2.19-1.785-4-4-4-2.186 0-4 1.814-4 4z" fill="#f6c630"/>
</svg>
